<?xml version="1.0" encoding="UTF-8"?>
<svg id="Layer_1" xmlns="http://www.w3.org/2000/svg" version="1.1" viewBox="0 0 5195.77 3653.95">
  <!-- Generator: Adobe Illustrator 30.5.1, SVG Export Plug-In . SVG Version: 2.1.4 Build 3)  -->
  <g>
    <line x1="1973.95" y1="1872.76" x2="3241.84" y2="1872.76" fill="none" stroke="#ee8a25" stroke-miterlimit="10" stroke-width="55.52"/>
    <polyline points="1774.44 1618.56 1774.44 172.51 2611.85 958.6 3441.35 158.69 3441.35 1623.17" fill="none" stroke="#ee8a25" stroke-miterlimit="10" stroke-width="91.22"/>
  </g>
  <g>
    <g>
      <path d="M804.5,2986.02c0,11.89-9.69,20.81-26.99,20.81-15.22,0-38.06-2.23-74.74-2.23s-62.29,2.23-83.74,2.23c-18.68,0-29.75-7.43-29.75-21.55,0-29.73,45.68-20.07,45.68-52.03,0-8.18-1.39-17.84-2.77-28.99l-39.44-236.38-114.89,274.28c-7.61,17.1-19.38,23.78-32.53,23.78-15.23,0-24.91-6.69-33.22-23.78l-132.19-279.49-37.37,241.58c-1.38,11.15-2.77,20.81-2.77,28.99,0,31.22,45.68,22.3,45.68,52.03,0,14.12-11.07,21.55-28.37,21.55-19.38,0-40.14-2.23-60.21-2.23s-38.75,2.23-53.98,2.23c-16.61,0-26.29-8.18-26.29-21.55,0-29.73,48.44-20.81,56.05-66.15l49.83-301.79c3.46-23.04,4.15-42.37,4.15-52.03,0-48.31-40.83-40.14-40.83-71.35,0-11.16,6.23-20.82,29.76-20.82,14.53,0,45.68,2.23,76.81,2.23s52.6-2.23,71.98-2.23c16.61,0,24.91,9.66,24.91,21.56,0,27.5-33.91,24.53-33.91,54.26,0,14.12,9.69,34.93,22.15,62.43l89.97,198.47,81.66-198.47c10.38-25.27,17.3-45.34,17.3-60.21,0-34.19-36.68-27.5-36.68-55.75,0-13.38,9.68-22.31,25.61-22.31,19.38,0,41.52,2.23,78.2,2.23,29.76,0,51.21-2.23,67.82-2.23s25.61,9.66,25.61,20.82c0,30.47-37.38,23.04-37.38,59.46,0,14.12,2.77,31.22,9,63.92l52.6,303.28c8.3,43.85,53.29,34.19,53.29,65.41" fill="#fff"/>
      <path d="M802.06,2751.87c0-171.7,117.65-292.12,267.83-292.12s268.52,121.16,268.52,290.64-110.04,269.82-269.22,269.82c-150.87,0-267.14-99.61-267.14-268.34M1211.76,2740.72c0-110.76-48.45-220.77-141.18-220.77s-141.87,108.53-141.87,223.74,50.52,212.58,141.18,212.58c95.5,0,141.87-100.34,141.87-215.56" fill="#fff"/>
      <path d="M1375.01,2751.87c0-171.7,117.65-292.12,267.83-292.12s268.52,121.16,268.52,290.64-110.04,269.82-269.22,269.82c-150.87,0-267.14-99.61-267.14-268.34M1784.71,2740.72c0-110.76-48.45-220.77-141.18-220.77s-141.87,108.53-141.87,223.74,50.52,212.58,141.18,212.58c95.5,0,141.87-100.34,141.87-215.56" fill="#fff"/>
      <path d="M2453.44,2986.76c0,11.15-7.61,20.07-22.84,20.07s-45.67-2.23-83.73-2.23-58.83,2.23-80.28,2.23-29.07-9.66-29.07-21.56c0-28.24,33.91-19.33,33.91-48.31,0-6.69-2.77-17.1-9-28.99l-99.66-167.99-65.05,65.42v112.24c0,52.03,42.91,36.42,42.91,67.64,0,11.15-7.61,21.56-24.91,21.56s-36.68-2.23-75.44-2.23-57.45,2.23-74.74,2.23-24.91-10.41-24.91-21.56c0-31.22,42.21-15.61,42.21-67.64v-355.31c0-52.04-42.21-36.42-42.21-68.38,0-11.16,8.99-20.82,26.99-20.82s33.91,2.23,72.67,2.23,57.44-2.23,75.44-2.23,24.91,9.66,24.91,20.82c0,31.96-42.91,16.34-42.91,68.38v163.53l159.87-165.76c11.76-12.64,17.99-18.58,17.99-28.99,0-18.58-33.22-11.16-33.22-36.43,0-14.12,11.08-20.81,29.76-20.81,20.76,0,49.14,2.23,69.21,2.23s55.37-2.23,73.36-2.23c12.46,0,20.07,7.43,20.07,18.58,0,30.48-43.6,18.59-76.81,52.04l-114.19,114.47,155.02,266.11c22.84,40.14,54.67,31.96,54.67,61.69" fill="#fff"/>
      <path d="M3000.64,2988.24c0,10.41-7.62,18.59-20.07,18.59-18.69,0-40.84-2.23-79.59-2.23s-68.51,2.23-89.97,2.23c-18.68,0-29.76-7.43-29.76-21.55,0-29.74,47.06-19.33,47.06-51.29,0-8.18-2.08-17.84-6.23-29.73l-19.38-54.26c-4.85-14.13-9-20.82-24.91-20.82h-142.57c-15.92,0-20.07,6.69-24.91,20.82l-19.38,52.77c-4.85,14.12-7.62,23.78-7.62,29.73,0,33.45,48.45,23.04,48.45,52.78,0,14.12-10.38,21.55-29.76,21.55-20.76,0-41.52-2.23-62.28-2.23s-35.98,2.23-53.98,2.23c-13.15,0-21.45-8.18-21.45-18.59,0-31.96,39.45-19.33,57.44-69.12l106.58-296.58c13.15-34.93,26.3-75.82,35.29-104.81,13.15-42.37,22.84-48.31,71.28-48.31s55.37,7.43,68.52,49.06c9,28.24,22.83,69.13,35.98,104.07l106.58,295.09c18,49.8,54.67,39.39,54.67,70.61M2769.49,2755.59l-62.98-175.42-62.98,175.42c-2.77,8.18-1.38,16.35,10.38,16.35h105.19c13.84,0,13.14-8.18,10.38-16.35" fill="#fff"/>
      <path d="M3621.09,2851.56c0,95.6-67.45,154.61-207.92,154.61-59.8,0-128.65-2.99-165.51-2.99s-59.11,2.24-74.41,2.24c-18.78,0-25.73-9.71-25.73-21.66,0-31.37,42.42-15.69,42.42-67.97v-357.02c0-52.29-42.42-36.6-42.42-67.97,0-11.96,6.95-21.66,25.73-21.66,15.3,0,36.16,2.24,74.41,2.24,42.42,0,86.23-5.22,143.25-5.22,114.74,0,192.63,49.3,192.63,139.67,0,44.81-20.86,85.89-71.63,109.05,65.37,20.17,109.18,67.22,109.18,136.68M3305.37,2673.8c0,13.44,4.17,18.67,22.95,18.67h45.2c52.16,0,86.23-24.65,86.23-79.17s-34.77-87.38-94.57-87.38h-9.74c-34.07,0-50.06,7.47-50.06,35.85v112.03ZM3494.52,2853.06c0-65.73-42.42-105.32-121.7-105.32h-45.9c-15.99,0-21.55,6.73-21.55,23.16v129.22c0,41.08,13.21,47.81,60.5,47.81h19.48c66.06,0,109.18-35.86,109.18-94.86" fill="#fff"/>
      <path d="M3652.36,2754.18c0-172.54,118.22-293.54,269.12-293.54s269.82,121.75,269.82,292.04-110.57,271.12-270.51,271.12c-151.6,0-268.43-100.09-268.43-269.63M4064.04,2742.97c0-111.29-48.68-221.83-141.87-221.83s-142.56,109.05-142.56,224.82,50.76,213.61,141.87,213.61c95.97,0,142.56-100.83,142.56-216.6" fill="#fff"/>
      <path d="M4659.9,2493.06c0,28.38-30.6,20.91-52.15,60.5l-139.78,256.19v109.8c0,52.29,53.54,33.61,53.54,68.72,0,11.21-6.95,21.66-24.34,21.66-20.86,0-44.5-2.24-86.93-2.24s-66.76,2.24-86.92,2.24c-17.39,0-24.34-10.46-24.34-21.66,0-35.11,53.54-16.43,53.54-68.72v-111.29l-139.08-255.44c-20.17-36.6-47.98-32.12-47.98-59,0-11.96,7.65-19.42,20.86-19.42,18.08,0,41.03,2.24,79.27,2.24,36.16,0,65.37-2.24,85.54-2.24,18.08,0,29.21,6.73,29.21,20.92,0,29.13-38.94,17.92-38.94,49.29,0,7.47,3.47,17.18,13.21,35.85l84.84,162.08,87.62-159.84c9.04-17.92,12.52-27.64,12.52-35.85,0-32.87-44.5-22.41-44.5-51.54,0-14.19,9.73-20.92,27.82-20.92,19.47,0,40.33,2.24,59.1,2.24s38.94-2.24,57.72-2.24c12.52,0,20.17,7.47,20.17,18.67" fill="#fff"/>
      <path d="M4707.68,2989.9l-29.9-69.46c-15.3-35.11-22.95-53.78-22.95-68.72,0-16.43,9.73-25.39,20.17-25.39,12.51,0,21.55,11.21,29.9,20.16,46.59,53.04,107.79,111.29,192.62,111.29,63.98,0,96.67-32.11,96.67-76.18,0-57.52-52.85-73.95-130.05-97.85-87.62-26.89-192.63-64.24-192.63-174.03,0-83.65,67.45-144.9,155.77-144.9,57.03,0,85.53,17.92,101.53,17.92s17.39-23.16,36.16-23.16,25.04,17.93,42.42,47.81l18.77,34.36c22.95,40.34,29.9,59.76,29.9,71.7s-8.34,19.42-17.38,19.42c-11.13,0-18.78-8.21-30.6-20.16-40.34-44.82-96.66-86.65-162.73-86.65-42.42,0-68.85,20.92-68.85,55.27,0,44.82,43.12,57.51,118.22,81.42,102.23,30.62,204.45,67.97,204.45,189.71,0,104.57-79.27,168.05-193.32,168.05-64.67,0-106.4-20.91-125.17-20.91s-22.95,25.39-41.03,25.39c-15.3,0-22.95-14.19-31.99-35.11" fill="#fff"/>
    </g>
    <g>
      <path d="M1901.82,3493.92c0,5.25-4.59,9.19-12.8,9.19-7.22,0-18.05-.98-35.44-.98s-29.53.98-39.7.98c-8.86,0-14.11-3.28-14.11-9.52,0-13.12,21.65-8.86,21.65-22.97,0-3.61-.65-7.87-1.31-12.8l-18.7-104.34-54.47,121.08c-3.61,7.54-9.19,10.5-15.42,10.5-7.22,0-11.81-2.96-15.75-10.5l-62.67-123.37-17.72,106.64c-.65,4.92-1.31,9.19-1.31,12.8,0,13.78,21.65,9.85,21.65,22.97,0,6.24-5.25,9.52-13.45,9.52-9.19,0-19.03-.98-28.54-.98s-18.37.98-25.59.98c-7.87,0-12.47-3.61-12.47-9.52,0-13.12,22.97-9.19,26.58-29.2l23.63-133.21c1.64-10.17,1.97-18.7,1.97-22.97,0-21.32-19.36-17.72-19.36-31.5,0-4.92,2.96-9.19,14.11-9.19,6.89,0,21.66.98,36.42.98s24.94-.98,34.12-.98c7.87,0,11.81,4.26,11.81,9.52,0,12.14-16.08,10.83-16.08,23.95,0,6.24,4.59,15.42,10.5,27.56l42.65,87.61,38.72-87.61c4.92-11.16,8.2-20.02,8.2-26.58,0-15.09-17.39-12.14-17.39-24.61,0-5.91,4.59-9.85,12.14-9.85,9.19,0,19.69.98,37.08.98,14.11,0,24.28-.98,32.15-.98s12.14,4.26,12.14,9.19c0,13.45-17.72,10.17-17.72,26.25,0,6.23,1.31,13.78,4.26,28.22l24.94,133.87c3.93,19.36,25.26,15.09,25.26,28.87Z" fill="#fff"/>
      <path d="M1915.6,3493.59c0-13.78,20.02-6.89,20.02-29.86v-156.84c0-22.97-20.02-16.08-20.02-30.19,0-4.92,4.27-9.19,12.8-9.19s16.08.98,34.45.98,27.23-.98,35.76-.98,11.81,4.26,11.81,9.19c0,14.11-20.34,7.22-20.34,30.19v156.84c0,22.97,20.34,16.08,20.34,29.86,0,4.92-3.61,9.52-11.81,9.52s-17.39-.98-35.76-.98-27.23.98-35.44.98-11.81-4.59-11.81-9.52Z" fill="#fff"/>
      <path d="M2270.61,3276.71c0,14.11-21.32,7.22-21.32,30.19v184.73c0,9.52-6.56,13.78-13.45,13.78-9.52,0-14.11-4.92-19.69-11.48l-129.93-159.79v129.6c0,22.31,26.58,13.78,26.58,29.86,0,5.91-4.59,9.52-13.13,9.52-9.19,0-19.03-.98-27.56-.98-7.88,0-17.39.98-25.92.98s-12.14-4.59-12.14-9.52c0-13.78,21.66-6.89,21.66-29.86v-156.84c0-22.97-21.66-16.08-21.66-29.86,0-5.58,4.59-9.52,13.45-9.52,7.22,0,14.76.66,22.64.66,8.53,0,14.11-.66,20.34-.66,6.56,0,11.81,2.3,17.72,9.19l110.24,136.49v-106.31c0-22.64-26.25-14.11-26.25-30.19,0-4.92,4.92-9.19,13.12-9.19,9.19,0,17.72.98,27.56.98,8.53,0,17.39-.98,25.59-.98s12.14,4.26,12.14,9.19Z" fill="#fff"/>
      <path d="M2291.61,3493.59c0-13.78,20.02-6.89,20.02-29.86v-156.84c0-22.97-20.02-16.08-20.02-30.19,0-4.92,4.27-9.19,12.8-9.19s16.08.98,34.45.98,27.23-.98,35.76-.98,11.81,4.26,11.81,9.19c0,14.11-20.34,7.22-20.34,30.19v156.84c0,22.97,20.34,16.08,20.34,29.86,0,4.92-3.61,9.52-11.81,9.52s-17.39-.98-35.76-.98-27.23.98-35.44.98-11.81-4.59-11.81-9.52Z" fill="#fff"/>
      <path d="M2646.63,3276.71c0,14.11-21.32,7.22-21.32,30.19v184.73c0,9.52-6.56,13.78-13.45,13.78-9.52,0-14.11-4.92-19.69-11.48l-129.93-159.79v129.6c0,22.31,26.58,13.78,26.58,29.86,0,5.91-4.59,9.52-13.13,9.52-9.19,0-19.03-.98-27.56-.98-7.88,0-17.39.98-25.92.98s-12.14-4.59-12.14-9.52c0-13.78,21.66-6.89,21.66-29.86v-156.84c0-22.97-21.66-16.08-21.66-29.86,0-5.58,4.59-9.52,13.45-9.52,7.22,0,14.76.66,22.64.66,8.53,0,14.11-.66,20.34-.66,6.56,0,11.81,2.3,17.72,9.19l110.24,136.49v-106.31c0-22.64-26.25-14.11-26.25-30.19,0-4.92,4.92-9.19,13.12-9.19,9.19,0,17.72.98,27.56.98,8.53,0,17.39-.98,25.59-.98s12.14,4.26,12.14,9.19Z" fill="#fff"/>
      <path d="M2663.37,3390.57c0-76.78,55.78-128.62,111.56-128.62,28.55,0,46.59,7.87,55.12,7.87,7.22,0,9.52-9.19,17.06-9.19,6.89,0,11.81,6.56,15.75,17.72l11.15,31.5c5.25,14.76,8.53,21,8.53,26.91,0,7.22-5.25,11.15-10.83,11.15-4.92,0-7.87-2.3-12.8-8.53-21.65-28.21-40.36-50.86-70.54-50.86-42.33,0-64.97,47.25-64.97,97.78s22.97,94.17,79.07,94.17c17.39,0,25.26-5.91,25.26-12.8v-42.33c0-22.97-21.33-15.75-21.33-29.86,0-5.25,3.61-9.51,12.47-9.51h69.89c8.86,0,12.47,4.26,12.47,9.51,0,13.78-20.34,6.89-20.34,29.86v35.76c0,15.75,8.86,14.77,8.86,23.3,0,5.25-2.96,8.2-10.83,11.16-13.78,4.59-46.59,13.45-84.98,13.45-75.14,0-130.59-41.67-130.59-118.45Z" fill="#fff"/>
      <path d="M2998.04,3390.89c0-78.09,54.14-128.95,111.56-128.95,22.64,0,41.34,7.87,49.87,7.87,7.55,0,9.52-9.19,17.06-9.19,6.56,0,10.5,4.92,15.42,17.72l11.81,31.5c5.58,14.76,8.53,21.33,8.53,26.91,0,7.54-5.25,11.15-10.5,11.15s-8.53-2.95-12.8-8.53c-24.61-33.14-44.3-50.86-67.59-50.86-37.08,0-64.97,37.73-64.97,90.56,0,58.73,32.15,93.19,74.15,93.19,25.92,0,46.59-13.78,60.05-32.16,3.28-4.59,6.89-8.53,12.8-8.53,6.23,0,10.5,4.6,10.5,10.83,0,4.27-1.64,9.19-4.92,15.09-11.48,21.66-44.95,51.51-97.78,51.51-59.72,0-113.2-44.3-113.2-118.12Z" fill="#fff"/>
      <path d="M3231.65,3390.57c0-75.79,55.78-128.95,126.98-128.95s127.31,53.48,127.31,128.29-52.17,119.11-127.64,119.11c-71.53,0-126.65-43.97-126.65-118.45ZM3425.89,3385.64c0-48.89-22.97-97.45-66.94-97.45s-67.26,47.9-67.26,98.76,23.95,93.84,66.93,93.84c45.28,0,67.27-44.3,67.27-95.15Z" fill="#fff"/>
      <path d="M3531.54,3452.25c17.06,0,28.87,9.52,28.87,24.93s-13.78,27.89-33.47,27.89c-17.39,0-28.55-9.51-28.55-24.93s13.45-27.89,33.14-27.89Z" fill="#fff"/>
    </g>
  </g>
</svg>