<?xml version="1.0" encoding="UTF-8"?>
<svg id="Layer_1" xmlns="http://www.w3.org/2000/svg" version="1.1" viewBox="0 0 1389.04 976.85">
  <!-- Generator: Adobe Illustrator 30.5.1, SVG Export Plug-In . SVG Version: 2.1.4 Build 3)  -->
  <g>
    <line x1="555.57" y1="511.15" x2="875.27" y2="511.15" fill="none" stroke="#ee8a25" stroke-miterlimit="10" stroke-width="14"/>
    <polyline points="505.26 447.05 505.26 82.43 716.41 280.64 925.57 78.95 925.57 448.21" fill="none" stroke="#ee8a25" stroke-miterlimit="10" stroke-width="23"/>
  </g>
  <g>
    <g>
      <path d="M260.69,791.85c0,3-2.44,5.25-6.81,5.25-3.84,0-9.6-.56-18.85-.56s-15.71.56-21.12.56c-4.71,0-7.5-1.87-7.5-5.44,0-7.5,11.52-5.06,11.52-13.12,0-2.06-.35-4.5-.7-7.31l-9.95-59.6-28.97,69.16c-1.92,4.31-4.89,6-8.2,6-3.84,0-6.28-1.69-8.38-6l-33.33-70.47-9.42,60.91c-.35,2.81-.7,5.25-.7,7.31,0,7.87,11.52,5.62,11.52,13.12,0,3.56-2.79,5.44-7.15,5.44-4.89,0-10.12-.56-15.18-.56s-9.77.56-13.61.56c-4.19,0-6.63-2.06-6.63-5.44,0-7.5,12.21-5.25,14.13-16.68l12.56-76.1c.87-5.81,1.05-10.68,1.05-13.12,0-12.18-10.3-10.12-10.3-17.99,0-2.81,1.57-5.25,7.5-5.25,3.66,0,11.52.56,19.37.56s13.26-.56,18.15-.56c4.19,0,6.28,2.44,6.28,5.44,0,6.93-8.55,6.18-8.55,13.68,0,3.56,2.44,8.81,5.58,15.74l22.69,50.04,20.59-50.04c2.62-6.37,4.36-11.43,4.36-15.18,0-8.62-9.25-6.93-9.25-14.06,0-3.37,2.44-5.62,6.46-5.62,4.89,0,10.47.56,19.72.56,7.5,0,12.91-.56,17.1-.56s6.46,2.44,6.46,5.25c0,7.68-9.42,5.81-9.42,14.99,0,3.56.7,7.87,2.27,16.12l13.26,76.47c2.09,11.06,13.44,8.62,13.44,16.49"/>
      <path d="M260.08,732.81c0-43.29,29.67-73.66,67.53-73.66s67.71,30.55,67.71,73.28-27.75,68.04-67.88,68.04c-38.04,0-67.36-25.12-67.36-67.66M363.38,730c0-27.93-12.22-55.67-35.6-55.67s-35.77,27.36-35.77,56.42,12.74,53.6,35.6,53.6c24.08,0,35.77-25.3,35.77-54.35"/>
      <path d="M404.55,732.81c0-43.29,29.67-73.66,67.53-73.66s67.71,30.55,67.71,73.28-27.75,68.04-67.88,68.04c-38.04,0-67.36-25.12-67.36-67.66M507.85,730c0-27.93-12.22-55.67-35.6-55.67s-35.77,27.36-35.77,56.42,12.74,53.6,35.6,53.6c24.08,0,35.77-25.3,35.77-54.35"/>
      <path d="M676.47,792.04c0,2.81-1.92,5.06-5.76,5.06s-11.52-.56-21.11-.56-14.83.56-20.24.56-7.33-2.44-7.33-5.44c0-7.12,8.55-4.87,8.55-12.18,0-1.69-.7-4.31-2.27-7.31l-25.13-42.36-16.4,16.49v28.3c0,13.12,10.82,9.18,10.82,17.05,0,2.81-1.92,5.44-6.28,5.44s-9.25-.56-19.02-.56-14.49.56-18.85.56-6.28-2.62-6.28-5.44c0-7.87,10.64-3.94,10.64-17.05v-89.59c0-13.12-10.64-9.18-10.64-17.24,0-2.81,2.27-5.25,6.8-5.25s8.55.56,18.32.56,14.48-.56,19.02-.56,6.28,2.44,6.28,5.25c0,8.06-10.82,4.12-10.82,17.24v41.23l40.31-41.8c2.97-3.19,4.54-4.69,4.54-7.31,0-4.69-8.38-2.81-8.38-9.19,0-3.56,2.79-5.25,7.5-5.25,5.23,0,12.39.56,17.45.56s13.96-.56,18.5-.56c3.14,0,5.06,1.87,5.06,4.69,0,7.69-10.99,4.69-19.37,13.12l-28.79,28.86,39.09,67.1c5.76,10.12,13.79,8.06,13.79,15.56"/>
      <path d="M814.45,792.42c0,2.63-1.92,4.69-5.06,4.69-4.71,0-10.3-.56-20.07-.56s-17.27.56-22.68.56c-4.71,0-7.5-1.87-7.5-5.44,0-7.5,11.87-4.87,11.87-12.93,0-2.06-.52-4.5-1.57-7.5l-4.89-13.68c-1.22-3.56-2.27-5.25-6.28-5.25h-35.95c-4.01,0-5.06,1.69-6.28,5.25l-4.89,13.31c-1.22,3.56-1.92,6-1.92,7.5,0,8.44,12.22,5.81,12.22,13.31,0,3.56-2.62,5.44-7.5,5.44-5.23,0-10.47-.56-15.71-.56s-9.07.56-13.61.56c-3.32,0-5.41-2.06-5.41-4.69,0-8.06,9.95-4.87,14.48-17.43l26.87-74.78c3.32-8.81,6.63-19.12,8.9-26.43,3.32-10.68,5.76-12.18,17.97-12.18s13.96,1.87,17.28,12.37c2.27,7.12,5.76,17.43,9.07,26.24l26.87,74.41c4.54,12.56,13.79,9.93,13.79,17.8M756.16,733.75l-15.88-44.23-15.88,44.23c-.7,2.06-.35,4.12,2.62,4.12h26.52c3.49,0,3.31-2.06,2.62-4.12"/>
      <path d="M970.89,757.95c0,24.11-17.01,38.98-52.43,38.98-15.08,0-32.44-.75-41.73-.75s-14.9.57-18.76.57c-4.73,0-6.49-2.45-6.49-5.46,0-7.91,10.7-3.96,10.7-17.14v-90.02c0-13.18-10.7-9.23-10.7-17.14,0-3.01,1.75-5.46,6.49-5.46,3.86,0,9.12.56,18.76.56,10.7,0,21.74-1.32,36.12-1.32,28.93,0,48.57,12.43,48.57,35.22,0,11.3-5.26,21.66-18.06,27.5,16.48,5.09,27.53,16.95,27.53,34.46M891.29,713.13c0,3.39,1.05,4.71,5.79,4.71h11.4c13.15,0,21.74-6.22,21.74-19.96s-8.77-22.03-23.85-22.03h-2.46c-8.59,0-12.62,1.88-12.62,9.04v28.25ZM938.98,758.33c0-16.57-10.7-26.56-30.69-26.56h-11.57c-4.03,0-5.44,1.7-5.44,5.84v32.58c0,10.36,3.33,12.05,15.25,12.05h4.91c16.66,0,27.53-9.04,27.53-23.92"/>
      <path d="M978.78,733.4c0-43.51,29.81-74.01,67.86-74.01s68.03,30.7,68.03,73.64-27.88,68.36-68.21,68.36c-38.23,0-67.68-25.24-67.68-67.99M1082.58,730.57c0-28.06-12.27-55.93-35.77-55.93s-35.95,27.5-35.95,56.69,12.8,53.86,35.77,53.86c24.2,0,35.95-25.42,35.95-54.62"/>
      <path d="M1232.83,667.55c0,7.16-7.71,5.27-13.15,15.25l-35.25,64.6v27.69c0,13.18,13.5,8.48,13.5,17.33,0,2.83-1.75,5.46-6.14,5.46-5.26,0-11.22-.57-21.92-.57s-16.83.57-21.92.57c-4.38,0-6.14-2.64-6.14-5.46,0-8.85,13.5-4.14,13.5-17.33v-28.06l-35.07-64.41c-5.09-9.23-12.1-8.1-12.1-14.88,0-3.01,1.93-4.9,5.26-4.9,4.56,0,10.35.57,19.99.57,9.12,0,16.48-.57,21.57-.57,4.56,0,7.37,1.7,7.37,5.27,0,7.35-9.82,4.52-9.82,12.43,0,1.88.88,4.33,3.33,9.04l21.39,40.87,22.09-40.3c2.28-4.52,3.16-6.97,3.16-9.04,0-8.29-11.22-5.65-11.22-12.99,0-3.58,2.45-5.27,7.01-5.27,4.91,0,10.17.57,14.9.57s9.82-.57,14.55-.57c3.16,0,5.09,1.88,5.09,4.71"/>
      <path d="M1244.88,792.83l-7.54-17.51c-3.86-8.85-5.79-13.56-5.79-17.33,0-4.14,2.45-6.4,5.09-6.4,3.16,0,5.44,2.83,7.54,5.08,11.75,13.37,27.18,28.06,48.57,28.06,16.13,0,24.37-8.1,24.37-19.21,0-14.5-13.33-18.65-32.79-24.67-22.09-6.78-48.57-16.2-48.57-43.88,0-21.09,17.01-36.54,39.28-36.54,14.38,0,21.57,4.52,25.6,4.52s4.38-5.84,9.12-5.84,6.31,4.52,10.7,12.05l4.73,8.66c5.79,10.17,7.54,15.07,7.54,18.08s-2.1,4.9-4.38,4.9c-2.81,0-4.73-2.07-7.71-5.08-10.17-11.3-24.37-21.85-41.03-21.85-10.7,0-17.36,5.27-17.36,13.94,0,11.3,10.87,14.5,29.81,20.53,25.78,7.72,51.55,17.14,51.55,47.84,0,26.37-19.99,42.37-48.75,42.37-16.31,0-26.83-5.27-31.56-5.27s-5.79,6.4-10.35,6.4c-3.86,0-5.79-3.58-8.07-8.85"/>
    </g>
    <g>
      <path d="M537.38,919.92c0,1.32-1.16,2.32-3.23,2.32-1.82,0-4.55-.25-8.94-.25s-7.45.25-10.01.25c-2.23,0-3.56-.83-3.56-2.4,0-3.31,5.46-2.23,5.46-5.79,0-.91-.17-1.99-.33-3.23l-4.72-26.31-13.73,30.53c-.91,1.9-2.32,2.65-3.89,2.65-1.82,0-2.98-.75-3.97-2.65l-15.8-31.11-4.47,26.89c-.17,1.24-.33,2.32-.33,3.23,0,3.47,5.46,2.48,5.46,5.79,0,1.57-1.32,2.4-3.39,2.4-2.32,0-4.8-.25-7.2-.25s-4.63.25-6.45.25c-1.99,0-3.14-.91-3.14-2.4,0-3.31,5.79-2.32,6.7-7.36l5.96-33.59c.41-2.57.5-4.72.5-5.79,0-5.38-4.88-4.47-4.88-7.94,0-1.24.75-2.32,3.56-2.32,1.74,0,5.46.25,9.18.25s6.29-.25,8.6-.25c1.99,0,2.98,1.08,2.98,2.4,0,3.06-4.05,2.73-4.05,6.04,0,1.57,1.16,3.89,2.65,6.95l10.75,22.09,9.76-22.09c1.24-2.81,2.07-5.05,2.07-6.7,0-3.81-4.38-3.06-4.38-6.21,0-1.49,1.16-2.48,3.06-2.48,2.32,0,4.96.25,9.35.25,3.56,0,6.12-.25,8.11-.25s3.06,1.08,3.06,2.32c0,3.39-4.47,2.57-4.47,6.62,0,1.57.33,3.47,1.08,7.12l6.29,33.75c.99,4.88,6.37,3.81,6.37,7.28Z"/>
      <path d="M540.85,919.84c0-3.47,5.05-1.74,5.05-7.53v-39.55c0-5.79-5.05-4.05-5.05-7.61,0-1.24,1.08-2.32,3.23-2.32s4.05.25,8.69.25,6.87-.25,9.02-.25,2.98,1.08,2.98,2.32c0,3.56-5.13,1.82-5.13,7.61v39.55c0,5.79,5.13,4.05,5.13,7.53,0,1.24-.91,2.4-2.98,2.4s-4.38-.25-9.02-.25-6.87.25-8.94.25-2.98-1.16-2.98-2.4Z"/>
      <path d="M630.37,865.15c0,3.56-5.38,1.82-5.38,7.61v46.58c0,2.4-1.66,3.47-3.39,3.47-2.4,0-3.56-1.24-4.96-2.9l-32.76-40.29v32.68c0,5.63,6.7,3.47,6.7,7.53,0,1.49-1.16,2.4-3.31,2.4-2.32,0-4.8-.25-6.95-.25-1.99,0-4.39.25-6.54.25s-3.06-1.16-3.06-2.4c0-3.47,5.46-1.74,5.46-7.53v-39.55c0-5.79-5.46-4.05-5.46-7.53,0-1.41,1.16-2.4,3.39-2.4,1.82,0,3.72.17,5.71.17,2.15,0,3.56-.17,5.13-.17,1.65,0,2.98.58,4.47,2.32l27.8,34.42v-26.81c0-5.71-6.62-3.56-6.62-7.61,0-1.24,1.24-2.32,3.31-2.32,2.32,0,4.47.25,6.95.25,2.15,0,4.38-.25,6.45-.25s3.06,1.08,3.06,2.32Z"/>
      <path d="M635.67,919.84c0-3.47,5.05-1.74,5.05-7.53v-39.55c0-5.79-5.05-4.05-5.05-7.61,0-1.24,1.08-2.32,3.23-2.32s4.05.25,8.69.25,6.87-.25,9.02-.25,2.98,1.08,2.98,2.32c0,3.56-5.13,1.82-5.13,7.61v39.55c0,5.79,5.13,4.05,5.13,7.53,0,1.24-.91,2.4-2.98,2.4s-4.38-.25-9.02-.25-6.87.25-8.94.25-2.98-1.16-2.98-2.4Z"/>
      <path d="M725.18,865.15c0,3.56-5.38,1.82-5.38,7.61v46.58c0,2.4-1.66,3.47-3.39,3.47-2.4,0-3.56-1.24-4.96-2.9l-32.76-40.29v32.68c0,5.63,6.7,3.47,6.7,7.53,0,1.49-1.16,2.4-3.31,2.4-2.32,0-4.8-.25-6.95-.25-1.99,0-4.39.25-6.54.25s-3.06-1.16-3.06-2.4c0-3.47,5.46-1.74,5.46-7.53v-39.55c0-5.79-5.46-4.05-5.46-7.53,0-1.41,1.16-2.4,3.39-2.4,1.82,0,3.72.17,5.71.17,2.15,0,3.56-.17,5.13-.17,1.65,0,2.98.58,4.47,2.32l27.8,34.42v-26.81c0-5.71-6.62-3.56-6.62-7.61,0-1.24,1.24-2.32,3.31-2.32,2.32,0,4.47.25,6.95.25,2.15,0,4.38-.25,6.45-.25s3.06,1.08,3.06,2.32Z"/>
      <path d="M729.4,893.86c0-19.36,14.06-32.43,28.13-32.43,7.2,0,11.75,1.99,13.9,1.99,1.82,0,2.4-2.32,4.3-2.32,1.74,0,2.98,1.65,3.97,4.47l2.81,7.94c1.32,3.72,2.15,5.29,2.15,6.78,0,1.82-1.32,2.81-2.73,2.81-1.24,0-1.99-.58-3.23-2.15-5.46-7.11-10.18-12.82-17.79-12.82-10.67,0-16.38,11.91-16.38,24.65s5.79,23.75,19.94,23.75c4.38,0,6.37-1.49,6.37-3.23v-10.67c0-5.79-5.38-3.97-5.38-7.53,0-1.32.91-2.4,3.14-2.4h17.62c2.23,0,3.14,1.08,3.14,2.4,0,3.48-5.13,1.74-5.13,7.53v9.02c0,3.97,2.23,3.72,2.23,5.87,0,1.32-.75,2.07-2.73,2.81-3.47,1.16-11.75,3.39-21.43,3.39-18.95,0-32.93-10.51-32.93-29.87Z"/>
      <path d="M813.79,893.94c0-19.69,13.65-32.51,28.13-32.51,5.71,0,10.42,1.99,12.58,1.99,1.9,0,2.4-2.32,4.3-2.32,1.65,0,2.65,1.24,3.89,4.47l2.98,7.94c1.41,3.72,2.15,5.38,2.15,6.78,0,1.9-1.32,2.81-2.65,2.81s-2.15-.74-3.23-2.15c-6.21-8.36-11.17-12.82-17.04-12.82-9.35,0-16.38,9.51-16.38,22.83,0,14.81,8.11,23.5,18.7,23.5,6.54,0,11.75-3.48,15.14-8.11.83-1.16,1.74-2.15,3.23-2.15,1.57,0,2.65,1.16,2.65,2.73,0,1.08-.41,2.32-1.24,3.81-2.9,5.46-11.33,12.99-24.65,12.99-15.06,0-28.54-11.17-28.54-29.78Z"/>
      <path d="M872.7,893.86c0-19.11,14.06-32.51,32.02-32.51s32.1,13.49,32.1,32.35-13.15,30.03-32.18,30.03c-18.04,0-31.93-11.09-31.93-29.87ZM921.67,892.62c0-12.33-5.79-24.57-16.88-24.57s-16.96,12.08-16.96,24.9,6.04,23.66,16.88,23.66c11.42,0,16.96-11.17,16.96-23.99Z"/>
      <path d="M948.31,909.41c4.3,0,7.28,2.4,7.28,6.29s-3.47,7.03-8.44,7.03c-4.38,0-7.2-2.4-7.2-6.29s3.39-7.03,8.36-7.03Z"/>
    </g>
  </g>
</svg>